<?xml version="1.0" encoding="UTF-8" standalone="no"?>
<!-- Created with Inkscape (http://www.inkscape.org/) -->

<svg
   xmlns:dc="http://purl.org/dc/elements/1.1/"
   xmlns:cc="http://creativecommons.org/ns#"
   xmlns:rdf="http://www.w3.org/1999/02/22-rdf-syntax-ns#"
   xmlns:svg="http://www.w3.org/2000/svg"
   xmlns="http://www.w3.org/2000/svg"
   xmlns:xlink="http://www.w3.org/1999/xlink"
   xmlns:sodipodi="http://sodipodi.sourceforge.net/DTD/sodipodi-0.dtd"
   xmlns:inkscape="http://www.inkscape.org/namespaces/inkscape"
   width="800"
   height="450"
   viewBox="0 0 211.66666 119.0625"
   version="1.1"
   id="svg8"
   inkscape:version="0.92.2 5c3e80d, 2017-08-06"
   sodipodi:docname="botton.svg">
  <defs
     id="defs2">
    <linearGradient
       inkscape:collect="always"
       id="linearGradient900">
      <stop
         style="stop-color:#ffffff;stop-opacity:1;"
         offset="0"
         id="stop896" />
      <stop
         style="stop-color:#ffffff;stop-opacity:0;"
         offset="1"
         id="stop898" />
    </linearGradient>
    <inkscape:path-effect
       effect="bspline"
       id="path-effect831"
       is_visible="true"
       weight="33.333333"
       steps="2"
       helper_size="0"
       apply_no_weight="true"
       apply_with_weight="true"
       only_selected="false" />
    <inkscape:path-effect
       effect="bspline"
       id="path-effect831-3"
       is_visible="true"
       weight="33.333333"
       steps="2"
       helper_size="0"
       apply_no_weight="true"
       apply_with_weight="true"
       only_selected="false" />
    <linearGradient
       inkscape:collect="always"
       xlink:href="#linearGradient900"
       id="linearGradient902"
       x1="-6.7162532"
       y1="100.09289"
       x2="217.89607"
       y2="100.09289"
       gradientUnits="userSpaceOnUse"
       gradientTransform="translate(0,2.5302495)" />
  </defs>
  <sodipodi:namedview
     id="base"
     pagecolor="#ffffff"
     bordercolor="#666666"
     borderopacity="1.0"
     inkscape:pageopacity="0.0"
     inkscape:pageshadow="2"
     inkscape:zoom="0.88728956"
     inkscape:cx="344.82558"
     inkscape:cy="74.923322"
     inkscape:document-units="px"
     inkscape:current-layer="layer1"
     showgrid="false"
     units="px"
     inkscape:window-width="1340"
     inkscape:window-height="697"
     inkscape:window-x="12"
     inkscape:window-y="58"
     inkscape:window-maximized="0" />
  <metadata
     id="metadata5">
    <rdf:RDF>
      <cc:Work
         rdf:about="">
        <dc:format>image/svg+xml</dc:format>
        <dc:type
           rdf:resource="http://purl.org/dc/dcmitype/StillImage" />
        <dc:title></dc:title>
      </cc:Work>
    </rdf:RDF>
  </metadata>
  <g
     inkscape:label="fundo"
     inkscape:groupmode="layer"
     id="layer1"
     transform="translate(0,-177.93748)"
     style="display:inline;opacity:0.9">
    <path
       style="opacity:1;fill:#eb24d7;fill-opacity:1;stroke:none;stroke-width:0.26458332px;stroke-linecap:butt;stroke-linejoin:miter;stroke-opacity:1"
       d="m 1.6514398,256.73694 c 1.827611,0.81466 5.0083293,2.12327 10.0774572,3.82121 5.069127,1.69793 12.027299,3.78538 19.283337,5.62423 7.256038,1.83886 14.810255,3.42922 22.563294,4.37348 7.75304,0.94426 15.704845,1.24245 24.203357,0.94424 8.498512,-0.29822 17.54369,-1.19279 24.936155,-2.01157 7.39246,-0.81877 13.13254,-1.56178 19.41113,-2.86198 6.2786,-1.3002 13.09586,-3.15757 20.36446,-5.27103 7.2686,-2.11345 14.98854,-4.48297 22.27771,-6.11499 7.28917,-1.63202 14.14762,-2.5266 21.27934,-2.15382 7.13172,0.37278 14.53685,2.01284 19.23344,2.58432 4.6966,0.57147 6.83691,0.0364 8.35126,-0.23892 1.51435,-0.27531 2.90555,-0.38233 3.60119,1.25762 0.69563,1.63994 0.79502,5.01921 0.52168,11.55508 -0.27335,6.53587 -0.91939,16.2264 -1.24244,22.01634 -0.32305,5.78994 -0.32305,7.67845 -5.44262,8.62286 -5.11956,0.94441 -15.35607,0.94441 -51.6867,0.84501 -36.33063,-0.0994 -98.750697,-0.29819 -130.905861,-0.64606 -32.1551647,-0.34787 -34.0437122,-0.84486 -34.7892614,-7.10764 -0.7455491,-6.26279 -0.347997,-18.28874 0.7070534,-25.36542 1.0550505,-7.07667 2.7674145,-9.20301 3.8607009,-10.10565 1.09328647,-0.90264 1.56770692,-0.58196 3.3953179,0.23269 z"
       id="path829"
       inkscape:connector-curvature="0"
       inkscape:path-effect="#path-effect831"
       inkscape:original-d="m 0.29819277,256.24292 c 3.18098793,1.30836 6.36170953,2.61697 9.54216843,3.92586 6.9577588,2.08698 13.9159278,4.17444 20.8734938,6.26205 7.554481,1.5901 15.108699,3.18046 22.662651,4.77109 7.952072,0.29792 15.903877,0.59612 23.855421,0.89457 9.045447,-0.89484 18.090624,-1.78942 27.135543,-2.68373 5.74,-0.74323 11.48008,-1.48624 17.21973,-2.22896 6.81752,-1.85763 13.63478,-3.71501 20.45178,-5.57211 7.7202,-2.36979 15.44014,-4.73931 23.15981,-7.10857 6.85869,-0.89484 13.71714,-1.78942 20.5753,-2.68373 7.40538,1.63979 14.81051,3.27985 22.21536,4.92018 1.98822,-0.49726 4.12853,-1.03234 5.96386,-1.49097 1.1934,-0.0921 2.5846,-0.19906 3.8765,-0.29819 0.0997,3.37925 0.19906,6.75852 0.2982,10.13856 -0.64587,9.69173 -1.2919,19.38226 -1.93825,29.07379 2.6e-4,1.88833 2.6e-4,3.77684 0,5.66566 -10.23913,-2.6e-4 -20.47564,-2.6e-4 -30.71386,0 -62.42304,-0.19906 -124.843106,-0.39786 -187.2650566,-0.59639 -1.8882977,-0.49725 -3.7768438,-0.99424 -5.6656626,-1.49096 0.3978934,-12.02853 0.7954454,-24.05448 1.192771,-36.08132 1.7125506,-2.1265 3.4249164,-4.25283 5.1369756,-6.37885 0.474686,0.32041 0.94910809,0.64108 1.42326537,0.96202 z"
       sodipodi:nodetypes="cccccccccccccccccccccc" />
  </g>
  <g
     inkscape:groupmode="layer"
     id="layer2"
     inkscape:label="borda"
     style="display:inline;opacity:1">
    <path
       style="opacity:1;fill:url(#linearGradient902);fill-opacity:1;stroke:none;stroke-width:0.26458332px;stroke-linecap:butt;stroke-linejoin:miter;stroke-opacity:1"
       d="m 1.5025017,82.998952 c 2.5233049,0.243163 6.2507089,1.005095 10.8975223,2.404895 4.646814,1.3998 10.213076,3.437451 17.841874,5.251448 7.628799,1.813998 17.320061,3.404361 24.973702,4.199524 7.653641,0.795162 13.269602,0.79516 21.122019,0.584299 7.852417,-0.21086 17.94127,-0.632567 27.744221,-1.948366 9.80295,-1.315799 19.31997,-3.52563 26.79133,-5.310742 7.47137,-1.785113 12.89705,-3.145492 18.27709,-4.314652 5.38005,-1.16916 10.71444,-2.147116 16.81084,-3.083374 6.09641,-0.936258 12.95486,-1.830837 19.29139,-1.458051 6.33653,0.372785 12.15128,2.012843 16.84789,2.584334 4.6966,0.571492 8.54916,0.03641 10.79776,-0.238918 2.24859,-0.27533 3.63979,-0.382344 4.33543,1.257598 0.69563,1.639942 0.79502,5.019211 0.52168,11.555084 -0.27335,6.535869 -0.91939,16.226399 -1.24244,22.016339 -0.32305,5.78994 -0.32305,7.67845 -5.44262,8.62286 -5.11956,0.94441 -15.35607,0.94441 -51.6867,0.84501 -36.33063,-0.0994 -98.750698,-0.29819 -130.905862,-0.64606 -32.155164,-0.34787 -34.0437114,-0.84486 -34.7892605,-7.10764 -0.7455491,-6.26279 -0.3479971,-18.288737 0.2845956,-25.067242 0.6325927,-6.778505 1.066335,-7.543488 2.7064595,-8.897571 1.6401245,-1.354083 2.2997742,-1.491939 4.8230791,-1.248775 z"
       id="path829-6"
       inkscape:connector-curvature="0"
       inkscape:path-effect="#path-effect831-3"
       inkscape:original-d="m 0.29819253,82.48014 c 3.72767667,0.761669 7.45508067,1.523601 11.18222847,2.2858 5.566534,2.037388 11.132796,4.075038 16.698796,6.112955 9.691529,1.590098 19.382791,3.180461 29.073794,4.771089 5.61623,-2.67e-4 11.232191,-2.7e-4 16.847891,-8e-6 10.089123,-0.421972 20.177976,-0.843678 30.266568,-1.26512 9.51728,-2.210097 19.03429,-4.419928 28.55106,-6.629498 5.42596,-1.360648 10.85164,-2.721028 16.27708,-4.081147 5.33466,-0.978222 10.66905,-1.956179 16.00318,-2.933871 6.85869,-0.89484 13.71714,-1.78942 20.5753,-2.68373 5.81502,1.639794 11.62977,3.279853 17.44428,4.92018 3.57858,-0.497255 7.43114,-1.032335 10.73494,-1.49097 1.1934,-0.0921 2.5846,-0.19906 3.8765,-0.29819 0.0997,3.37925 0.19906,6.75852 0.2982,10.138561 -0.64587,9.691729 -1.2919,19.382259 -1.93825,29.073789 2.6e-4,1.88833 2.6e-4,3.77684 0,5.66566 -10.23913,-2.6e-4 -20.47564,-2.6e-4 -30.71386,0 -62.42304,-0.19906 -124.843107,-0.39786 -187.2650567,-0.59639 -1.8882979,-0.49725 -3.7768439,-0.99424 -5.6656626,-1.49096 0.3978934,-12.02853 0.7954454,-24.054479 1.192771,-36.08132 0.8676906,-1.530128 1.3014331,-2.295111 2.6023371,-4.589693 1.9792164,-0.413833 2.6388661,-0.551689 3.95790373,-0.827137 z"
       sodipodi:nodetypes="cccccccccccccccccccccc" />
  </g>
</svg>
