<?xml version="1.0" encoding="UTF-8" standalone="no"?>
<!-- Created with Inkscape (http://www.inkscape.org/) -->

<svg
   xmlns:dc="http://purl.org/dc/elements/1.1/"
   xmlns:cc="http://creativecommons.org/ns#"
   xmlns:rdf="http://www.w3.org/1999/02/22-rdf-syntax-ns#"
   xmlns:svg="http://www.w3.org/2000/svg"
   xmlns="http://www.w3.org/2000/svg"
   xmlns:sodipodi="http://sodipodi.sourceforge.net/DTD/sodipodi-0.dtd"
   xmlns:inkscape="http://www.inkscape.org/namespaces/inkscape"
   width="550"
   height="720"
   viewBox="0 0 145.52076 190.4999"
   version="1.1"
   id="svg8"
   inkscape:version="0.92.2 5c3e80d, 2017-08-06"
   sodipodi:docname="dente_com_fundo.svg"
   inkscape:export-filename="/home/thiago/Desktop/Banners/dentista/images/dente_com_fundo.png"
   inkscape:export-xdpi="96"
   inkscape:export-ydpi="96">
  <defs
     id="defs2">
    <inkscape:path-effect
       effect="bspline"
       id="path-effect935"
       is_visible="true"
       weight="33.333333"
       steps="2"
       helper_size="0"
       apply_no_weight="true"
       apply_with_weight="true"
       only_selected="false" />
    <inkscape:path-effect
       effect="bspline"
       id="path-effect96"
       is_visible="true"
       weight="33.333333"
       steps="2"
       helper_size="0"
       apply_no_weight="true"
       apply_with_weight="true"
       only_selected="false" />
    <inkscape:path-effect
       effect="bspline"
       id="path-effect4567"
       is_visible="true"
       weight="33.333333"
       steps="2"
       helper_size="0"
       apply_no_weight="true"
       apply_with_weight="true"
       only_selected="false" />
    <inkscape:path-effect
       effect="bspline"
       id="path-effect4563"
       is_visible="true"
       weight="33.333333"
       steps="2"
       helper_size="0"
       apply_no_weight="true"
       apply_with_weight="true"
       only_selected="false" />
    <inkscape:path-effect
       effect="bspline"
       id="path-effect4559"
       is_visible="true"
       weight="33.333333"
       steps="2"
       helper_size="0"
       apply_no_weight="true"
       apply_with_weight="true"
       only_selected="false" />
    <inkscape:path-effect
       effect="bspline"
       id="path-effect4555"
       is_visible="true"
       weight="33.333333"
       steps="2"
       helper_size="0"
       apply_no_weight="true"
       apply_with_weight="true"
       only_selected="false" />
    <inkscape:path-effect
       effect="bspline"
       id="path-effect4551"
       is_visible="true"
       weight="33.333333"
       steps="2"
       helper_size="0"
       apply_no_weight="true"
       apply_with_weight="true"
       only_selected="false" />
    <inkscape:path-effect
       effect="spiro"
       id="path-effect4547"
       is_visible="true" />
    <filter
       inkscape:collect="always"
       style="color-interpolation-filters:sRGB"
       id="filter961"
       x="-0.075629077"
       width="1.1512582"
       y="-0.049724265"
       height="1.0994485">
      <feGaussianBlur
         inkscape:collect="always"
         stdDeviation="3.3165437"
         id="feGaussianBlur963" />
    </filter>
    <filter
       inkscape:collect="always"
       style="color-interpolation-filters:sRGB"
       id="filter973"
       x="-0.084555744"
       width="1.1691115"
       y="-0.062690972"
       height="1.1253819">
      <feGaussianBlur
         inkscape:collect="always"
         stdDeviation="4.6470271"
         id="feGaussianBlur975" />
    </filter>
  </defs>
  <sodipodi:namedview
     id="base"
     pagecolor="#ffffff"
     bordercolor="#666666"
     borderopacity="1.0"
     inkscape:pageopacity="0.0"
     inkscape:pageshadow="2"
     inkscape:zoom="0.48908219"
     inkscape:cx="99.902545"
     inkscape:cy="252.60911"
     inkscape:document-units="mm"
     inkscape:current-layer="layer2"
     showgrid="false"
     inkscape:snap-bbox="false"
     showguides="false"
     inkscape:window-width="1340"
     inkscape:window-height="718"
     inkscape:window-x="12"
     inkscape:window-y="36"
     inkscape:window-maximized="0"
     inkscape:measure-start="148.768,908.384"
     inkscape:measure-end="669.455,908.384"
     units="px" />
  <metadata
     id="metadata5">
    <rdf:RDF>
      <cc:Work
         rdf:about="">
        <dc:format>image/svg+xml</dc:format>
        <dc:type
           rdf:resource="http://purl.org/dc/dcmitype/StillImage" />
        <dc:title />
      </cc:Work>
    </rdf:RDF>
  </metadata>
  <g
     inkscape:groupmode="layer"
     id="layer4"
     inkscape:label="mais fundo"
     style="display:inline">
    <path
       style="opacity:0.6;fill:#e6e6e6;fill-opacity:1;stroke:none;stroke-width:0.26458332px;stroke-linecap:butt;stroke-linejoin:miter;stroke-opacity:1;filter:url(#filter973)"
       d="M 57.443417,14.488381 C 54.925073,13.484241 51.705582,12.049815 48.772747,10.934052 45.839913,9.8182897 43.19436,9.0214362 40.548369,8.2882054 37.902378,7.5549747 35.256911,6.8856397 32.515284,6.6305689 29.773656,6.3754982 26.937066,6.5348572 24.338802,7.0608378 c -2.598265,0.5259806 -4.956694,1.418359 -6.869566,2.3747467 -1.912873,0.9563875 -3.378731,1.9761145 -4.638237,3.2833505 -1.259507,1.307236 -2.311058,2.900496 -3.140044,4.542431 -0.8289855,1.641936 -1.4345661,3.331187 -1.7533952,4.925086 -0.3188292,1.593899 -0.350692,3.091463 -0.3506978,4.510662 -5.8e-6,1.419199 0.031853,2.757254 0.2868891,4.367336 0.2550364,1.610082 0.7330713,3.490352 1.2591112,5.148211 0.52604,1.65786 1.0997077,3.092031 1.7692017,4.606373 0.669494,1.514343 1.434479,3.108063 2.135787,4.46287 0.701308,1.354807 1.338858,2.470519 1.960493,3.697844 0.621634,1.227324 1.227255,2.566065 2.046278,4.236589 0.819022,1.670524 1.890567,3.74867 2.846913,5.645422 0.956347,1.896752 1.816997,3.649929 2.582077,5.339475 0.76508,1.689545 1.434466,3.315198 1.960461,4.606274 0.525994,1.291076 0.908494,2.247325 1.195415,3.315265 0.28692,1.067941 0.478158,2.247242 0.589746,3.426797 0.111588,1.179555 0.143458,2.358806 0.04783,3.586207 -0.09563,1.227401 -0.318722,2.502224 -0.637528,3.889066 -0.318807,1.386842 -0.733116,2.884731 -1.17945,4.478783 -0.446334,1.594052 -0.924397,3.283207 -1.353177,4.697079 -0.42878,1.413872 -0.814427,2.570813 -1.276732,4.05337 -0.462305,1.482557 -1.004072,3.299072 -1.512618,4.936195 -0.508545,1.63712 -0.989688,3.11263 -1.404151,4.62698 -0.414462,1.51436 -0.765039,3.07602 -1.083847,4.59034 -0.318808,1.51433 -0.605649,2.98041 -0.890599,4.82979 -0.284949,1.84939 -0.575765,4.1436 -0.798926,6.35923 -0.223161,2.21563 -0.382528,4.38302 -0.462233,6.4552 -0.0797,2.07218 -0.0797,4.04833 0.111572,6.50311 0.191275,2.45478 0.573754,5.38712 1.020048,7.68239 0.446294,2.29528 0.956294,3.95278 1.474695,5.44781 0.518401,1.49503 1.075472,2.9041 1.920285,4.9444 0.844813,2.0403 1.992286,4.74961 3.076148,7.14049 1.083861,2.39088 2.103888,4.46281 3.410919,6.59869 1.307031,2.13589 2.900823,4.33532 4.415021,6.40738 1.514198,2.07206 2.948651,4.01654 4.462883,5.64235 1.514231,1.6258 3.108071,2.93275 4.470171,3.67538 1.3621,0.74264 2.534218,0.92754 3.49509,0.92973 0.960872,0.002 1.731401,-0.17494 2.261969,-0.57837 0.530567,-0.40342 0.82133,-1.0329 1.117712,-1.79337 0.296383,-0.76046 0.598413,-1.65188 0.826772,-2.45196 0.228359,-0.80007 0.383076,-1.50877 0.593347,-2.47467 0.210272,-0.9659 0.476094,-2.18898 0.825537,-4.16192 0.349442,-1.97293 0.782522,-4.69572 1.24475,-7.35363 0.462227,-2.6579 0.953594,-5.25092 1.470241,-7.83687 0.516647,-2.58595 1.058564,-5.16482 1.728007,-7.76124 0.669444,-2.59642 1.466384,-5.21038 2.337554,-7.85461 0.87117,-2.64423 1.816558,-5.31874 2.941618,-8.17451 1.125061,-2.85577 2.429774,-5.89281 3.677344,-8.60674 1.24757,-2.71392 2.437975,-5.10473 3.845994,-7.22445 1.408018,-2.11972 3.033985,-3.96885 4.3359,-5.06674 1.301915,-1.09788 2.300314,-1.45215 3.320217,-1.72305 1.019903,-0.2709 2.072199,-0.46222 3.108165,-0.44623 1.035967,0.016 2.056048,0.23913 3.314904,0.95618 1.258855,0.71706 2.757546,1.92876 3.952919,3.07632 1.195372,1.14755 2.087907,2.23135 2.964574,3.45868 0.876668,1.22732 1.737313,2.59798 2.598015,4.20781 0.860702,1.60982 1.721369,3.45866 2.695269,5.76599 0.973899,2.30733 2.060832,5.07267 2.970975,7.49543 0.910144,2.42277 1.643246,4.50231 2.46552,7.05929 0.822275,2.55699 1.7334,5.59044 2.580931,8.58047 0.84754,2.99004 1.63119,5.93564 2.33254,8.95097 0.70135,3.01533 1.32019,6.09953 1.87627,8.83229 0.55609,2.73276 1.04935,5.11371 1.63383,7.16164 0.58447,2.04794 1.25997,3.7621 2.07756,5.05082 0.81758,1.28872 1.77703,2.15161 2.96298,2.58118 1.18595,0.42957 2.59753,0.42571 4.00948,0.42184 0,0 2.63727,-1.01433 2.63727,-1.01433 0.7818,-0.80981 1.56386,-1.61989 2.41161,-2.8491 0.84775,-1.22922 1.76153,-2.87778 2.95931,-5.71102 1.19779,-2.83324 2.67962,-6.85113 3.89862,-10.45372 1.219,-3.60259 2.17546,-6.7908 3.09985,-10.47244 0.92439,-3.68164 1.81705,-7.858 2.50238,-11.50786 0.68534,-3.64985 1.16354,-6.77408 1.6086,-10.83963 0.44506,-4.06555 0.8619,-9.13173 0.94159,-13.41913 0.0797,-4.28741 -0.17536,-7.82601 -0.55788,-11.22084 -0.38252,-3.39483 -0.89259,-6.64656 -1.57695,-9.94191 -0.68436,-3.295351 -1.54708,-6.650403 -2.51932,-9.981498 -0.97224,-3.331095 -2.05614,-6.64654 -2.77336,-9.29235 -0.71723,-2.64581 -1.0679,-4.622311 -1.25915,-6.965189 -0.19124,-2.342878 -0.22311,-5.052756 0.30518,-7.330802 0.5283,-2.278045 1.61677,-4.124854 2.69743,-5.636751 1.08067,-1.511897 2.15357,-2.689102 3.23578,-4.059845 1.08221,-1.370742 2.17378,-2.935013 3.06357,-4.621325 0.88979,-1.686311 1.57789,-3.494656 2.13458,-5.876787 0.55668,-2.382131 0.98203,-5.338061 1.06603,-7.770053 0.084,-2.431991 -0.17327,-4.340111 -0.6471,-6.595658 -0.47383,-2.255547 -1.1642,-4.858561 -2.03536,-7.061928 -0.87116,-2.203368 -1.92312,-4.007179 -3.2658,-5.538847 -1.34268,-1.531667 -2.97617,-2.791299 -4.47824,-3.739877 -1.50207,-0.948578 -2.8728,-1.5861274 -4.6261,-2.0643146 -1.7533,-0.4781871 -3.88891,-0.7969349 -6.2639,-0.9085229 -2.37498,-0.111588 -4.98867,-0.015965 -7.1112,0.3925186 -2.12252,0.4084838 -3.80664,1.153381 -5.7195,2.0779259 -1.91286,0.924545 -4.08012,2.040046 -5.569143,2.940706 -1.489027,0.90066 -2.336301,1.617583 -3.579802,2.59007 -1.243502,0.972487 -2.900563,2.215283 -4.303277,3.283256 -1.402715,1.067973 -2.550101,1.960385 -3.555833,2.545574 -1.005733,0.585188 -1.926976,0.881302 -3.042944,1.072625 -1.115967,0.191323 -2.454347,0.286921 -3.932331,0.08113 -1.477984,-0.205796 -3.1125,-0.718588 -4.786183,-1.324296 -1.673683,-0.605709 -3.394915,-1.306942 -5.5627,-2.199555 -2.167784,-0.892612 -4.781536,-1.976363 -6.997053,-2.805194 -2.215517,-0.828832 -4.032443,-1.402598 -6.550787,-2.406738 z"
       id="path933"
       inkscape:connector-curvature="0"
       inkscape:path-effect="#path-effect935"
       inkscape:original-d="M 58.144579,14.918674 C 54.925215,13.483922 51.705724,12.049496 48.485691,10.615211 45.840008,9.817974 43.194455,9.0211207 40.548192,8.2243974 37.902457,7.5546631 35.25699,6.8853281 32.610691,6.2161141 29.773642,6.3752492 26.937052,6.5346083 24.099397,6.6942769 21.740483,7.5866746 19.382054,8.4790528 17.02259,9.3719876 c -1.466265,1.0199304 -2.932123,2.0396574 -4.399096,3.0602414 -1.051939,1.593983 -2.103491,3.187243 -3.1558736,4.781626 -0.6055004,1.689501 -1.211081,3.378752 -1.8170182,5.068524 -0.031613,1.497978 -0.063476,2.995541 -0.095632,4.494729 0.032157,1.339199 0.064015,2.677254 0.095633,4.016567 0.478496,1.880778 0.9565309,3.761048 1.434488,5.642317 0.5741304,1.434401 1.1477988,2.868572 1.7213848,4.303465 0.7654,1.593767 1.530385,3.187487 2.295181,4.781627 0.637815,1.115448 1.275365,2.23116 1.912651,3.347137 0.605989,1.338707 1.21161,2.677448 1.817018,4.016568 1.020437,2.008198 2.10418,4.080055 3.155874,6.120482 0.861,1.753084 1.72165,3.506261 2.582078,5.259789 0.669734,1.625587 1.33912,3.25124 2.008283,4.877258 0.382826,0.956138 0.765325,1.912387 1.14759,2.868975 0.191557,1.179372 0.382795,2.358673 0.573795,3.538405 0.03215,1.17942 0.06402,2.358671 0.09563,3.538403 -0.222927,1.275114 -0.446021,2.549937 -0.669428,3.825301 -0.414241,1.498332 -0.82855,2.996221 -1.243222,4.494731 -0.477999,1.689594 -0.956061,3.37875 -1.434488,5.068522 -0.350454,1.14754 -0.764796,2.294916 -1.147591,3.442771 -0.541803,1.817257 -1.083571,3.633772 -1.625753,5.451054 -0.446098,1.46636 -0.956061,2.93247 -1.434488,4.3991 -0.350464,1.56207 -0.70104,3.12373 -1.051958,4.68599 -0.286689,1.46639 -0.57353,2.93247 -0.860692,4.3991 -0.286693,2.23162 -0.573531,4.52634 -0.860693,6.78991 -0.159144,2.16768 -0.318511,4.33507 -0.478163,6.50301 2.65e-4,1.9764 2.65e-4,3.95255 0,5.92922 0.382846,2.93285 0.765325,5.86519 1.147591,8.79819 0.510344,1.65749 1.020345,3.31499 1.53012,4.97289 0.510356,1.33873 1.0841,2.7412 1.625753,4.1122 1.147971,2.7096 2.295445,5.41891 3.442771,8.12876 1.020394,2.07188 2.040425,4.14381 3.060241,6.21612 1.594224,2.1994 3.188016,4.39883 4.781628,6.59864 1.434782,1.94431 2.869239,3.88879 4.303463,5.83359 1.594176,1.30674 3.188015,2.61369 4.781624,3.92093 1.130402,0.17802 2.302519,0.36293 3.45338,0.54478 0.770794,-0.17738 1.541323,-0.3545 2.311588,-0.53136 0.291029,-0.62975 0.581792,-1.25923 0.872294,-1.88845 0.302303,-0.89171 0.604334,-1.78313 0.906108,-2.67431 0.154984,-0.70898 0.309701,-1.41768 0.464156,-2.12613 0.266088,-1.22335 0.531911,-2.44643 0.79747,-3.66925 0.433346,-2.72306 0.866426,-5.44585 1.299241,-8.16838 0.491629,-2.59327 0.982998,-5.18629 1.4741,-7.77905 0.542183,-2.57914 1.0841,-5.15801 1.625753,-7.73662 0.797203,-2.61422 1.594142,-5.22818 2.390815,-7.84187 0.945651,-2.67477 1.891039,-5.34928 2.83616,-8.02352 1.304976,-3.0373 2.609687,-6.07434 3.914135,-9.11111 1.190673,-2.39108 2.381078,-4.78189 3.57122,-7.17244 1.625807,-1.84892 3.251772,-3.69806 4.877261,-5.54669 0.988316,-0.31899 1.97667,-0.70157 2.964608,-1.05196 1.051882,-0.19147 2.104179,-0.38279 3.155872,-0.57379 1.020345,0.22288 2.040427,0.44602 3.060241,0.66943 1.498063,1.21072 2.99675,2.42243 4.494729,3.63403 0.892821,1.08356 1.785359,2.16735 2.677713,3.25151 0.861002,1.37054 1.721646,2.7412 2.582076,4.1122 0.860986,1.84869 1.721652,3.69753 2.58208,5.54669 1.087371,2.76552 2.174304,5.53086 3.261116,8.29683 0.733474,2.07958 1.466578,4.15912 2.19955,6.23931 0.911573,3.03379 1.8227,6.06724 2.733723,9.1015 0.78404,2.94583 1.56769,5.89143 2.35121,8.83781 0.61917,3.0843 1.23801,6.1685 1.85662,9.25314 0.49357,2.38088 0.98683,4.76183 1.47991,7.14344 0.67588,1.71419 1.35138,3.42836 2.02668,5.14294 0.9598,0.8627 1.91925,1.72559 2.87859,2.58888 1.41231,-0.004 4.23584,-0.0116 4.23584,-0.0116 l 2.63727,-1.01433 c 0,0 1.56386,-1.61989 2.3454,-2.42943 0.91405,-1.64884 1.82783,-3.2974 2.74135,-4.94571 1.48211,-4.01816 2.96394,-8.03605 4.44551,-12.05368 0.95645,-3.18756 1.91291,-6.37577 2.86897,-9.56325 0.89275,-4.17581 1.78541,-8.35217 2.67771,-12.52786 0.4784,-3.12403 0.9566,-6.24826 1.43449,-9.37199 0.44651,-5.00456 0.82908,-10.07356 1.24323,-15.10994 -0.25475,-3.53847 -0.50978,-7.07707 -0.76506,-10.61521 -0.50974,-3.25155 -1.01982,-6.503276 -1.53012,-9.754518 -0.8285,-3.34718 -1.72113,-6.694543 -2.58208,-10.041417 -1.08351,-3.315342 -2.16741,-6.630786 -3.25151,-9.945782 -0.35037,-1.976575 -0.70104,-3.953076 -1.05196,-5.929217 -0.0316,-2.709564 -0.0635,-5.419442 -0.0956,-8.128765 1.08853,-1.846716 2.177,-3.693526 3.2651,-5.539891 1.07316,-1.177466 2.14606,-2.35467 3.21869,-3.531606 1.09183,-1.564525 2.18341,-3.128793 3.27471,-4.69279 0.68837,-1.808609 1.37647,-3.616953 2.0643,-5.425036 0.42562,-2.956203 0.85096,-5.912135 1.27605,-8.867805 -0.25701,-1.908384 -0.51429,-3.816504 -0.77183,-5.724359 -0.6901,-2.603282 -1.38046,-5.206298 -2.0711,-7.809052 -1.05169,-1.804079 -2.10364,-3.607893 -3.15587,-5.411442 -1.63322,-1.259895 -3.26671,-2.519525 -4.90046,-3.778892 -1.37047,-0.637814 -2.7412,-1.275365 -4.1122,-1.9126504 -2.13571,-0.3190669 -4.27132,-0.6378149 -6.40738,-0.9563254 -2.61396,0.095378 -5.22765,0.1910006 -7.84187,0.2868975 -1.62566,0.7329951 -3.31499,1.466101 -4.97289,2.1995483 -2.16782,1.115663 -4.33508,2.231161 -6.503008,3.347139 -0.79679,0.701143 -1.657366,1.402345 -2.486446,2.103915 -1.657935,1.243385 -3.314996,2.486181 -4.972891,3.729669 -1.14753,0.892465 -2.294917,1.784876 -3.442772,2.677711 -0.860647,0.286706 -1.784876,0.57353 -2.67771,0.860692 -1.339067,0.0954 -2.677446,0.191001 -4.016566,0.286898 C 79.85315,23.047074 78.22774,22.505257 76.601722,21.995481 74.880404,21.29384 73.159172,20.592606 71.4375,19.891566 68.823605,18.807382 66.209853,17.723631 63.595633,16.64006 61.778787,16.065971 59.961861,15.492205 58.144579,14.918674 Z"
       sodipodi:nodetypes="cccccccccccccccccccccccccccccccccccccccccccccccccccccccccccccccccccccccccccccccccccccccccccccccccccccccccccc"
       inkscape:export-filename="/home/thiago/Desktop/Banners/dentista/images/dente_com_fundo.png"
       inkscape:export-xdpi="96"
       inkscape:export-ydpi="96" />
  </g>
  <g
     inkscape:groupmode="layer"
     id="layer2"
     inkscape:label="fundo"
     style="display:inline">
    <path
       style="fill:#ffffff;stroke:#000000;stroke-width:0.26458332px;stroke-linecap:butt;stroke-linejoin:miter;stroke-opacity:1;filter:url(#filter961)"
       d="M 65.035573,22.658966 C 62.395137,22.029007 57.11408,20.769045 52.91152,20.011536 48.708961,19.254027 45.585081,18.999016 42.365361,19.34965 c -3.21972,0.350634 -6.534725,1.306886 -9.340073,2.805148 -2.805348,1.498261 -5.10031,3.538228 -6.088643,6.534958 -0.988332,2.99673 -0.669596,6.949059 0.127367,11.44397 0.796963,4.494912 2.071985,9.53125 3.219591,13.037854 1.147607,3.506605 2.167649,5.482938 3.060241,7.140611 0.892591,1.657673 1.657612,2.996459 2.199546,4.590329 0.541934,1.593871 0.860689,3.442647 1.243243,5.514821 0.382554,2.072174 0.828788,4.36709 0.765061,6.821725 -0.06373,2.454634 -0.63747,5.068357 -1.338826,8.383855 -0.701356,3.315499 -1.530073,7.331591 -2.677703,11.762744 -1.14763,4.431155 -2.613884,9.276165 -4.040612,14.346915 -1.426729,5.07074 -2.844875,10.48548 -3.514345,14.08772 -0.669471,3.60224 -0.605719,5.45103 -0.127507,9.24487 0.478211,3.79384 1.370658,9.531 2.677658,14.91842 1.307,5.38743 3.028319,10.42388 4.8961,14.56551 1.867782,4.14162 3.881821,7.38793 5.1835,9.54848 1.301678,2.16054 1.89091,3.23519 2.294232,3.91329 0.403322,0.6781 0.620609,0.95945 0.81537,1.12487 0.194761,0.16543 0.36651,0.21459 0.595891,-0.0526 0.229382,-0.26714 0.516322,-0.85019 0.735914,-1.53962 0.219592,-0.68942 0.371884,-1.48508 0.528378,-2.22087 0.156495,-0.73579 0.317153,-1.41159 0.442289,-3.10977 0.125136,-1.69819 0.214805,-4.41871 0.456861,-7.9765 0.242056,-3.55779 0.636559,-7.95368 0.957776,-10.74871 0.321217,-2.79503 0.569182,-3.98977 1.211468,-6.73356 0.642286,-2.7438 1.679431,-7.03893 3.088179,-12.00333 1.408747,-4.96441 3.189599,-10.60002 5.178793,-15.59269 1.989194,-4.99266 4.187046,-9.34328 5.691624,-12.22845 1.504579,-2.88517 2.316109,-4.30535 2.721753,-5.01522 0.405644,-0.70988 7.100264,-7.505935 8.030122,-7.872243 0.929858,-0.366308 2.789693,-1.098971 4.722335,-1.251075 1.932641,-0.152103 3.939118,0.276246 5.978875,1.307399 2.039758,1.031153 4.113717,2.665523 6.040908,4.620886 1.927191,1.955363 3.707945,4.232023 5.009672,6.164883 1.301727,1.93285 2.124452,3.52195 3.299717,6.36105 1.175265,2.83909 2.713018,6.95484 4.178194,11.23202 1.46517,4.27719 2.86265,8.72884 4.05733,12.89332 1.19469,4.16447 2.18644,8.04134 2.98666,11.7212 0.80022,3.67985 1.4088,7.16224 1.9667,11.05629 0.55791,3.89404 1.06505,8.19907 1.34681,10.78002 0.28177,2.58094 0.33811,3.43728 0.32686,4.26297 -0.0113,0.82568 -0.0901,1.61983 -0.11832,2.34421 -0.0282,0.72439 -0.006,1.37771 0.45377,1.84005 0.45945,0.46235 1.35523,0.73277 2.15834,0.72704 0.80311,-0.006 1.51312,-0.28747 2.06249,-0.78065 0.54936,-0.49318 0.93819,-1.19758 1.70735,-3.35303 0.76916,-2.15544 1.91876,-5.762 3.14717,-10.0502 1.22842,-4.2882 2.53588,-9.25882 3.30224,-12.7413 0.76636,-3.48249 0.99178,-5.47747 1.17772,-8.46382 0.18594,-2.98636 0.33247,-6.9654 0.34937,-11.74385 0.0169,-4.77844 -0.0958,-10.35768 -0.17263,-15.92881 -0.0768,-5.57112 -0.11776,-11.13503 -0.53975,-16.80842 -0.42199,-5.673393 -1.225,-11.45656 -2.05184,-15.039329 -0.82684,-3.582768 -1.67749,-4.965286 -2.13098,-6.787074 -0.45349,-1.821788 -0.50987,-4.082648 -0.48742,-6.117608 0.0224,-2.03496 0.12368,-3.843958 0.34848,-5.463303 0.22479,-1.619346 0.57308,-3.048957 0.95568,-4.267971 0.38261,-1.219013 0.79934,-2.227092 1.21621,-3.23549 0,0 1.6228,-2.600419 1.6228,-2.600419 0.4946,-0.972928 0.98934,-1.94615 1.50787,-3.176672 0.51853,-1.230523 1.061,-2.718544 1.46193,-4.016719 0.40093,-1.298175 0.66034,-2.406435 0.96167,-3.729855 0.30133,-1.323419 0.64458,-2.861999 0.75981,-4.397643 0.11523,-1.535645 0.003,-3.068417 -0.35813,-5.018167 -0.36067,-1.94975 -0.96927,-4.316532 -1.83142,-6.097142 -0.86214,-1.78061 -1.97796,-2.975328 -3.55578,-4.305208 -1.57782,-1.329881 -3.61766,-2.794953 -6.02547,-3.532271 -2.40781,-0.737319 -5.18305,-0.746681 -7.99265,-0.265016 -2.80961,0.481665 -5.65227,1.454205 -7.98091,2.409489 -2.328648,0.955284 -4.141568,1.892645 -5.748781,2.738686 -1.607212,0.846041 -3.007019,1.599874 -5.121035,2.141103 -2.114017,0.541228 -4.940013,0.869116 -7.575241,0.740036 -2.635227,-0.12908 -5.077719,-0.71515 -7.562573,-1.611928 -2.484854,-0.896778 -5.010547,-2.103776 -6.273604,-2.707376 -1.263057,-0.6036 -1.263027,-0.603598 -3.903463,-1.233557 z"
       id="path94"
       inkscape:connector-curvature="0"
       inkscape:path-effect="#path-effect96"
       inkscape:original-d="m 67.676009,23.288925 c -5.280798,-1.260228 -10.561855,-2.52019 -15.84318,-3.779888 -3.123845,-0.255294 -6.247725,-0.510305 -9.371986,-0.765061 -3.315252,0.956135 -6.630257,1.912386 -9.945782,2.868976 -2.295136,2.04009 -4.590098,4.080057 -6.885543,6.120482 0.319078,3.953029 0.637814,7.905358 0.956326,11.858435 1.275442,5.03669 2.550464,10.073028 3.8253,15.109938 1.020382,1.976215 2.040425,3.952547 3.06024,5.929217 0.765366,1.33866 1.530387,2.677446 2.295181,4.016566 0.319061,1.848749 0.637815,3.697525 0.956326,5.546688 0.446601,2.295178 0.892834,4.590094 1.338855,6.88554 -0.573582,2.613925 -1.147326,5.227648 -1.721384,7.841869 -0.828649,4.016774 -1.657366,8.032866 -2.486446,12.049699 -1.466212,4.845484 -2.932467,9.690494 -4.399097,14.536144 -1.402438,5.29175 -2.804957,10.71058 -4.207832,16.06626 0.06402,1.84874 0.127775,3.69753 0.191266,5.54669 0.892957,5.73848 1.785406,11.47564 2.67771,17.21386 1.721716,5.03657 3.443037,10.07302 5.164156,15.10994 2.014432,3.24625 4.028472,6.49256 6.042311,9.73924 0.589523,1.07443 1.178753,2.14908 1.767736,3.22402 0.21764,0.2812 0.434927,0.56255 0.652117,0.84438 0.172138,0.0489 0.343876,0.0981 0.515426,0.14754 0.287233,-0.58337 0.574173,-1.16642 0.860882,-1.74927 0.152573,-0.79601 0.304865,-1.59167 0.456907,-2.38714 0.160932,-0.6761 0.321589,-1.3519 0.48199,-2.02746 0.08994,-2.72085 0.179605,-5.44137 0.269011,-8.16165 0.39469,-4.39529 0.789194,-8.79118 1.183392,-13.18637 0.248197,-1.19485 0.496162,-2.38959 0.743847,-3.58399 1.036875,-4.29318 2.074018,-8.58831 3.110632,-12.88206 1.780857,-5.63506 3.561709,-11.27067 5.34217,-16.90561 2.19787,-4.35039 4.395721,-8.70101 6.593184,-13.05112 0.811675,-1.42023 1.623202,-2.84041 2.434407,-4.26021 l 6.69462,-6.796055 c 1.859661,-0.732756 3.719496,-1.465419 5.578848,-2.19773 2.006052,0.427937 4.012528,0.856287 6.018395,1.284825 2.073812,1.633783 4.147772,3.268152 6.221261,4.902626 1.780958,2.276314 3.56171,4.552974 5.342171,6.829864 0.823015,1.58889 1.645742,3.17799 2.468215,4.76738 1.521868,4.09115 3.065815,8.20459 4.598319,12.30728 1.39784,4.4517 2.79532,8.90335 4.19258,13.35542 0.9921,3.8769 1.98386,7.75377 2.97539,11.63106 0.6089,3.48245 1.21747,6.96484 1.82581,10.44766 0.50746,4.30529 1.0146,8.61032 1.5215,12.91588 0.0566,0.85634 0.11296,1.71268 0.16906,2.56966 -0.0786,0.79444 -0.1575,1.58858 -0.23669,2.38368 0.0228,0.65364 0.0453,1.30696 0.0676,1.96106 0.89646,0.27028 1.79224,0.5407 2.688,0.81146 0.71031,-0.28203 1.42032,-0.56378 2.13009,-0.84528 0.3891,-0.70467 0.77793,-1.40907 1.16649,-2.1132 1.14984,-3.60676 2.29943,-7.21332 3.44875,-10.81958 1.30753,-4.97014 2.615,-9.94076 3.9221,-14.91075 0.22566,-1.995 0.45108,-3.98998 0.67622,-5.98458 0.14676,-3.97813 0.2933,-7.95717 0.43955,-11.93535 -0.11243,-5.57873 -0.22515,-11.15797 -0.33812,-16.73655 -0.0407,-5.56366 -0.0816,-11.12757 -0.12281,-16.690964 -0.80275,-5.78343 -1.60577,-11.566597 -2.40905,-17.3495 -0.85038,-1.382784 -1.70103,-2.765302 -2.55194,-4.147558 -0.0561,-2.261136 -0.11249,-4.521995 -0.16913,-6.782608 0.10151,-1.809287 0.20275,-3.618285 0.30373,-5.427047 0.34856,-1.429895 0.69684,-2.859508 1.04486,-4.288865 0.41713,-1.008662 1.2506,-3.025193 1.2506,-3.025193 l 1.6228,-2.600419 c 0,0 0.98944,-1.946101 1.48379,-2.918783 0.54276,-1.488358 1.08523,-2.97638 1.62746,-4.464193 0.25968,-1.108544 0.51909,-2.216804 0.77823,-3.324809 0.34351,-1.538837 0.68677,-3.077415 1.02975,-4.615728 -0.11244,-1.533041 -0.22514,-3.065813 -0.3381,-4.598323 -0.60834,-2.36705 -1.21694,-4.733833 -1.82581,-7.100354 -1.11546,-1.194869 -2.23128,-2.389589 -3.34731,-3.583987 -2.03967,-1.465408 -4.0795,-2.930483 -6.11983,-4.395456 -2.77551,-0.0096 -5.55075,-0.01899 -8.32684,-0.02809 -2.84317,0.97254 -5.68583,1.94508 -8.52968,2.918199 -1.81344,0.937504 -3.62636,1.874865 -5.440444,2.812955 -1.40034,0.753998 -2.800147,1.50783 -4.201034,2.262367 -2.827122,0.327784 -5.653118,0.655672 -8.48048,0.983952 -2.442992,-0.586519 -4.885483,-1.17259 -7.329069,-1.758595 -2.526045,-1.207558 -5.051738,-2.414556 -7.578004,-3.621438 z"
       sodipodi:nodetypes="cccccccccccccccccccccccccccccccccccccccccccccccccccccccccccccccccccccccccccccc"
       inkscape:export-filename="/home/thiago/Desktop/Banners/dentista/images/dente_com_fundo.png"
       inkscape:export-xdpi="96"
       inkscape:export-ydpi="96" />
  </g>
  <g
     inkscape:label="dente"
     inkscape:groupmode="layer"
     id="layer1"
     style="display:inline"
     transform="translate(0,-106.50008)">
    <g
       id="g34"
       transform="translate(4.2944419,-9.2592763)"
       style="fill:#db3397;fill-opacity:1;stroke:none;stroke-width:0.26458332;stroke-miterlimit:4;stroke-dasharray:none">
      <path
         sodipodi:nodetypes="cccccccccccccccccc"
         inkscape:original-d="m 83.538513,146.37507 c -18.201896,-7.49339 -36.403889,-14.98646 -54.606144,-22.47926 -4.914846,1.42072 -10.110711,2.8416 -15.166345,4.26266 -3.089391,4.39186 -5.8978361,8.52516 -8.8470341,12.788 4.2536414,9.53879 8.5065031,19.07666 12.7595091,28.61566 2.928508,5.07507 5.856576,10.15007 8.784611,15.2257 -0.08397,5.8626 -0.168171,11.72496 -0.252632,17.58812 -2.401782,6.23912 -4.803512,12.47773 -7.205852,18.71754 -1.689888,9.01478 -3.379677,18.02798 -5.070103,27.04352 2.192347,8.91333 4.384037,17.82527 6.575741,26.73853 8.27349,11.1705 16.546454,22.34089 24.819316,33.51173 -6.808733,-15.35472 -13.617673,-30.70908 -20.426932,-46.06334 0.557081,-7.65165 1.113902,-15.30286 1.670494,-22.95406 5.677329,-16.4456 11.354211,-32.89036 17.031005,-49.33532 -2.093991,-5.74114 -4.188185,-11.4819 -6.282672,-17.22252 -4.809791,-7.8404 -9.619723,-15.68037 -14.430002,-23.52023 4.745558,-5.07739 9.490723,-10.15437 14.235839,-15.23128 15.470915,4.10466 30.940972,8.20941 46.411201,12.31455 z"
         inkscape:path-effect="#path-effect4555"
         inkscape:connector-curvature="0"
         id="path4553"
         d="m 66.702345,140.57612 c -1.365857,-1.69413 -19.567852,-9.18719 -31.131462,-12.24163 -11.56361,-3.05443 -16.749193,-1.59697 -20.804476,1.32137 -4.055282,2.91833 -6.8982642,7.02774 -6.2461727,13.92864 0.6520916,6.9009 4.9049557,16.43876 8.4957147,23.74582 3.590759,7.30705 6.518828,12.38205 7.94089,17.85108 1.422062,5.46903 1.337856,11.33139 0.09479,17.3825 -1.243063,6.05112 -3.644794,12.28973 -5.690939,19.91703 -2.046146,7.6273 -3.735935,16.6405 -3.485027,25.60499 0.250908,8.96449 2.4426,17.87643 7.675201,27.91838 5.232602,10.04195 13.505568,21.21234 14.237621,19.12036 0.732054,-2.09197 -6.076886,-17.44633 -9.202936,-28.94937 -3.12605,-11.50303 -2.569229,-19.15424 0.547775,-31.20265 3.117004,-12.04842 8.793886,-28.49318 10.585206,-39.58615 1.791321,-11.09297 -0.302874,-16.83373 -3.75501,-23.6242 -3.452135,-6.79048 -8.26207,-14.63045 -8.294281,-21.08916 -0.03221,-6.45872 4.712958,-11.5357 14.820931,-12.02167 10.107973,-0.48597 25.578028,3.61878 24.212172,1.92466 z"
         style="fill:#db3397;fill-opacity:1;stroke:none;stroke-width:0.26458332;stroke-linecap:butt;stroke-linejoin:miter;stroke-miterlimit:4;stroke-dasharray:none;stroke-opacity:1" />
      <path
         sodipodi:nodetypes="cccccccccccccccccc"
         inkscape:original-d="m 44.994564,151.25705 c 7.34291,3.66274 14.68552,7.32575 22.027927,10.98907 3.295417,-2.97044 6.590571,-5.94056 9.885479,-8.91039 5.894761,-5.92339 11.789258,-11.84649 17.68352,-17.7693 4.902636,-2.32275 9.80559,-4.6455 14.70801,-6.96779 3.44516,0.30937 6.8905,0.61906 10.33537,0.92904 2.78266,3.25112 5.56544,6.50297 8.34779,9.7549 0.33396,3.49107 0.68549,7.16889 1.02788,10.75399 -0.79343,3.71763 -1.58694,7.43477 -2.38095,11.15328 -2.26202,2.48847 -4.52329,4.97612 -6.78598,7.46534 0.32297,-3.98477 0.64555,-7.96771 0.96796,-11.95112 -0.93532,-3.32546 -1.87089,-6.65061 -2.80671,-9.97549 -5.13804,-0.75409 -10.27617,-1.50787 -15.41486,-2.26141 -6.243733,4.00071 -12.487351,8.00148 -18.731394,12.00264 -4.505129,2.94181 -9.010061,5.88362 -13.515473,8.82586 -2.648634,-0.74797 -5.296994,-1.4955 -7.946132,-2.2429 -1.611272,-0.64625 -3.222572,-1.29214 -4.83423,-1.93777 -4.18916,-3.28629 -8.378545,-6.57225 -12.568207,-9.85795 z"
         inkscape:path-effect="#path-effect4559"
         inkscape:connector-curvature="0"
         id="path4557"
         d="m 50.760648,154.73159 c 1.576659,0.18853 8.919271,3.85154 14.238285,4.19784 5.319014,0.34629 8.614165,-2.62383 13.20899,-7.07045 4.594825,-4.44662 10.489327,-10.36972 15.887798,-14.49244 5.398471,-4.12272 10.301429,-6.44546 14.475169,-7.45184 4.17374,-1.00638 7.61908,-0.69668 10.73272,1.08383 3.11363,1.78052 5.89641,5.03237 7.45457,8.40376 1.55816,3.37139 1.90969,7.04921 1.68422,10.70054 -0.22547,3.65133 -1.01899,7.36847 -2.54691,10.47198 -1.52792,3.10351 -3.78919,5.59116 -4.75916,4.84338 -0.96998,-0.74779 -0.64739,-4.73073 -0.95389,-8.38511 -0.3065,-3.65438 -1.24207,-6.97953 -4.27887,-9.0189 -3.0368,-2.03937 -8.17493,-2.79315 -13.86609,-1.16968 -5.691155,1.62347 -11.934775,5.62424 -17.309361,9.09572 -5.374585,3.47149 -9.879519,6.41329 -13.456616,7.51055 -3.577098,1.09726 -6.225457,0.34973 -8.355681,-0.3471 -2.130225,-0.69682 -3.741529,-1.3427 -6.64199,-3.30868 -2.900462,-1.96597 -7.089842,-5.25194 -5.513184,-5.0634 z"
         style="fill:#db3397;fill-opacity:1;stroke:none;stroke-width:0.26458332;stroke-linecap:butt;stroke-linejoin:miter;stroke-miterlimit:4;stroke-dasharray:none;stroke-opacity:1" />
      <path
         sodipodi:nodetypes="cccccccccccccccccccc"
         inkscape:original-d="m 41.149313,283.70309 c 1.318256,-8.42952 2.636259,-16.85876 3.954013,-25.28774 4.766402,-11.56208 9.532541,-23.12387 14.298433,-34.68542 3.258889,-3.00082 6.517524,-6.00138 9.775903,-9.00165 3.721163,0.81163 7.442069,1.62352 11.162726,2.43569 3.608744,5.945 7.217174,11.89018 10.825488,17.83583 4.222175,11.79421 8.44394,23.58828 12.665534,35.38281 1.03022,9.87826 2.06022,19.75704 3.08991,29.63563 0.53287,-5.30804 1.06552,-10.61603 1.59791,-15.92364 -0.50225,-7.18176 -1.00476,-14.36325 -1.50752,-21.54445 -2.75053,-11.67195 -5.50133,-23.34366 -8.252365,-35.01506 -2.91624,-5.63095 -5.832728,-11.26162 -8.749473,-16.89201 -3.132518,-3.80607 -6.265207,-7.61176 -9.398297,-11.41737 -4.425659,-0.2578 -8.851243,-0.51533 -13.277408,-0.7726 -3.477697,3.72791 -6.955343,7.45576 -10.433594,11.18428 -2.664194,4.8249 -5.328332,9.64954 -7.993012,14.47497 -3.210543,9.3028 -6.421004,18.60491 -9.632047,27.90826 -0.662056,8.38935 -1.3243,16.77817 -1.986854,25.168 0.52814,5.92888 1.056001,11.85772 1.583624,17.78702 0.759263,-3.7578 1.518271,-7.5153 2.277029,-11.27255 z"
         inkscape:path-effect="#path-effect4563"
         inkscape:connector-curvature="0"
         id="path4561"
         d="m 41.428865,281.36692 c 1.0385,-6.09338 2.356503,-14.52262 5.398621,-24.51816 3.042118,-9.99554 7.808256,-21.55733 11.820718,-28.83848 4.012462,-7.28115 7.271101,-10.28171 10.760828,-11.37588 3.489726,-1.09418 7.210631,-0.28229 10.875213,3.09623 3.664583,3.37852 7.273018,9.3237 11.188256,18.1936 3.915238,8.86989 8.13701,20.66396 10.762929,31.50031 2.62592,10.83636 3.65592,20.71514 4.43723,23.00039 0.78131,2.28525 1.31396,-3.02274 1.329,-9.26741 0.0151,-6.24466 -0.48746,-13.42615 -2.11412,-22.8527 -1.62666,-9.42655 -4.37746,-21.09826 -7.211102,-29.74939 -2.833645,-8.65113 -5.750136,-14.2818 -8.774752,-18.99999 -3.024617,-4.7182 -6.157303,-8.52389 -9.936544,-10.55557 -3.779242,-2.03169 -8.204826,-2.28921 -12.156748,-0.55403 -3.951922,1.73518 -7.429564,5.46304 -10.500825,9.73972 -3.071262,4.27669 -5.735404,9.10133 -8.673047,16.16544 -2.937643,7.06411 -6.148103,16.36622 -8.084698,25.21259 -1.936595,8.84636 -2.598839,17.23518 -2.666069,24.39456 -0.06723,7.15937 0.46063,13.08821 1.104117,14.17393 0.643487,1.08572 1.402493,-2.67178 2.440993,-8.76516 z"
         style="fill:#db3397;fill-opacity:1;stroke:none;stroke-width:0.26458332;stroke-linecap:butt;stroke-linejoin:miter;stroke-miterlimit:4;stroke-dasharray:none;stroke-opacity:1" />
      <path
         sodipodi:nodetypes="cccccccccccccccccccccccc"
         inkscape:original-d="m 118.32807,196.48521 c 0.30015,0.53391 0.59991,1.06786 0.89947,1.60218 1.2734,2.97995 2.54651,5.96007 3.81943,8.94066 0.67905,3.70363 1.35775,7.40701 2.03628,11.11128 0.43853,4.57978 0.87673,9.15899 1.31474,13.73926 -0.22775,4.64726 -0.4557,9.29405 -0.68397,13.94186 -0.62318,5.43812 -1.24654,10.8756 -1.87031,16.3143 -1.68323,6.2841 -3.36644,12.56751 -5.05016,18.85199 -3.21062,5.96112 -6.42079,11.92119 -9.63232,17.88358 1.7137,-5.59174 3.4266,-11.18146 5.13953,-16.77181 0.53669,-3.39455 1.07307,-6.7888 1.60919,-10.18283 0.3441,-2.82041 0.6879,-5.64046 1.03143,-8.46029 0.0206,-3.94641 0.041,-7.89251 0.0612,-11.83836 -0.29532,-3.61327 -0.59091,-7.22625 -0.88676,-10.83896 -0.38004,-2.93742 -0.76038,-5.87454 -1.14097,-8.81141 -0.60101,-3.60489 -1.20232,-7.20949 -1.80387,-10.81383 -1.49262,-4.6021 -2.98552,-9.20389 -4.47871,-13.80541 -1.17019,-2.85773 -2.34067,-5.71518 -3.51144,-8.57235 -2.33704,-5.45236 -4.67431,-10.90442 -7.011892,-16.35629 2.994942,0.87209 5.989592,1.74443 8.983982,2.61702 2.13852,1.6026 4.68382,3.51062 6.41469,4.80858 1.02477,1.33187 2.53112,3.29053 3.79628,4.93619 0.32166,0.56795 0.96418,1.70464 0.96418,1.70464 0,0 2.6e-4,-2.6e-4 0,0 z"
         inkscape:path-effect="#path-effect4567"
         inkscape:connector-curvature="0"
         id="path4565"
         d="m 118.47799,196.75225 c 0.14992,0.26705 0.44968,0.80099 1.23616,2.55811 0.78648,1.75711 2.05958,4.73724 3.03557,8.07931 0.976,3.34207 1.65469,7.04545 2.21323,11.18746 0.55855,4.14201 0.99675,8.72122 1.1019,13.33496 0.10515,4.61375 -0.12281,9.26054 -0.54854,14.30349 -0.42573,5.04296 -1.04909,10.48044 -2.20255,16.34183 -1.15345,5.86139 -2.83668,12.1448 -5.2838,18.2676 -2.44712,6.1228 -5.65729,12.08287 -6.40624,12.2682 -0.74895,0.18532 0.96396,-5.4044 2.08872,-9.89684 1.12477,-4.49245 1.66116,-7.8867 2.10126,-10.99391 0.4401,-3.10722 0.78391,-5.92727 0.96599,-9.31038 0.18209,-3.3831 0.20249,-7.3292 0.0649,-11.10875 -0.13761,-3.77955 -0.43319,-7.39253 -0.77115,-10.66758 -0.33796,-3.27506 -0.71829,-6.21218 -1.2091,-9.48305 -0.49081,-3.27088 -1.0921,-6.87548 -2.13921,-10.97867 -1.0471,-4.10319 -2.54,-8.70498 -3.87169,-12.43459 -1.3317,-3.72961 -2.50218,-6.58706 -4.25606,-10.74183 -1.75389,-4.15477 -4.09117,-9.60682 -3.76238,-11.89663 0.3288,-2.2898 3.32345,-1.41747 5.88984,-0.17987 2.56638,1.2376 5.11169,3.14561 6.48947,4.46049 1.37779,1.31488 2.88414,3.27354 3.67754,4.38032 0.7934,1.10678 1.11484,1.67508 1.43623,2.24329 0,0 0,0 0.14992,0.26704 z"
         style="fill:#db3397;fill-opacity:1;stroke:none;stroke-width:0.26458332;stroke-linecap:butt;stroke-linejoin:miter;stroke-miterlimit:4;stroke-dasharray:none;stroke-opacity:1" />
    </g>
  </g>
</svg>
