<?xml version="1.0" encoding="UTF-8" standalone="no"?>
<!-- Created with Inkscape (http://www.inkscape.org/) -->

<svg
   xmlns:dc="http://purl.org/dc/elements/1.1/"
   xmlns:cc="http://creativecommons.org/ns#"
   xmlns:rdf="http://www.w3.org/1999/02/22-rdf-syntax-ns#"
   xmlns:svg="http://www.w3.org/2000/svg"
   xmlns="http://www.w3.org/2000/svg"
   xmlns:sodipodi="http://sodipodi.sourceforge.net/DTD/sodipodi-0.dtd"
   xmlns:inkscape="http://www.inkscape.org/namespaces/inkscape"
   width="550"
   height="720"
   viewBox="0 0 145.52076 190.4999"
   version="1.1"
   id="svg8"
   inkscape:version="0.92.2 5c3e80d, 2017-08-06"
   sodipodi:docname="dente_sem_fundo.svg">
  <defs
     id="defs2">
    <inkscape:path-effect
       effect="bspline"
       id="path-effect4567"
       is_visible="true"
       weight="33.333333"
       steps="2"
       helper_size="0"
       apply_no_weight="true"
       apply_with_weight="true"
       only_selected="false" />
    <inkscape:path-effect
       effect="bspline"
       id="path-effect4563"
       is_visible="true"
       weight="33.333333"
       steps="2"
       helper_size="0"
       apply_no_weight="true"
       apply_with_weight="true"
       only_selected="false" />
    <inkscape:path-effect
       effect="bspline"
       id="path-effect4559"
       is_visible="true"
       weight="33.333333"
       steps="2"
       helper_size="0"
       apply_no_weight="true"
       apply_with_weight="true"
       only_selected="false" />
    <inkscape:path-effect
       effect="bspline"
       id="path-effect4555"
       is_visible="true"
       weight="33.333333"
       steps="2"
       helper_size="0"
       apply_no_weight="true"
       apply_with_weight="true"
       only_selected="false" />
    <inkscape:path-effect
       effect="bspline"
       id="path-effect4551"
       is_visible="true"
       weight="33.333333"
       steps="2"
       helper_size="0"
       apply_no_weight="true"
       apply_with_weight="true"
       only_selected="false" />
    <inkscape:path-effect
       effect="spiro"
       id="path-effect4547"
       is_visible="true" />
  </defs>
  <sodipodi:namedview
     id="base"
     pagecolor="#ffffff"
     bordercolor="#666666"
     borderopacity="1.0"
     inkscape:pageopacity="0.0"
     inkscape:pageshadow="2"
     inkscape:zoom="0.69166667"
     inkscape:cx="275"
     inkscape:cy="360"
     inkscape:document-units="mm"
     inkscape:current-layer="layer1"
     showgrid="false"
     inkscape:snap-bbox="false"
     showguides="false"
     inkscape:window-width="1340"
     inkscape:window-height="697"
     inkscape:window-x="12"
     inkscape:window-y="58"
     inkscape:window-maximized="0"
     inkscape:measure-start="148.768,908.384"
     inkscape:measure-end="669.455,908.384"
     units="px" />
  <metadata
     id="metadata5">
    <rdf:RDF>
      <cc:Work
         rdf:about="">
        <dc:format>image/svg+xml</dc:format>
        <dc:type
           rdf:resource="http://purl.org/dc/dcmitype/StillImage" />
        <dc:title></dc:title>
      </cc:Work>
    </rdf:RDF>
  </metadata>
  <g
     inkscape:label="dente"
     inkscape:groupmode="layer"
     id="layer1"
     style="display:inline"
     transform="translate(0,-106.50008)">
    <g
       id="g34"
       transform="translate(4.2944419,-9.2592763)"
       style="fill:#db3397;fill-opacity:1;stroke:none;stroke-width:0.26458332;stroke-miterlimit:4;stroke-dasharray:none">
      <path
         sodipodi:nodetypes="cccccccccccccccccc"
         inkscape:original-d="m 83.538513,146.37507 c -18.201896,-7.49339 -36.403889,-14.98646 -54.606144,-22.47926 -4.914846,1.42072 -10.110711,2.8416 -15.166345,4.26266 -3.089391,4.39186 -5.8978361,8.52516 -8.8470341,12.788 4.2536414,9.53879 8.5065031,19.07666 12.7595091,28.61566 2.928508,5.07507 5.856576,10.15007 8.784611,15.2257 -0.08397,5.8626 -0.168171,11.72496 -0.252632,17.58812 -2.401782,6.23912 -4.803512,12.47773 -7.205852,18.71754 -1.689888,9.01478 -3.379677,18.02798 -5.070103,27.04352 2.192347,8.91333 4.384037,17.82527 6.575741,26.73853 8.27349,11.1705 16.546454,22.34089 24.819316,33.51173 -6.808733,-15.35472 -13.617673,-30.70908 -20.426932,-46.06334 0.557081,-7.65165 1.113902,-15.30286 1.670494,-22.95406 5.677329,-16.4456 11.354211,-32.89036 17.031005,-49.33532 -2.093991,-5.74114 -4.188185,-11.4819 -6.282672,-17.22252 -4.809791,-7.8404 -9.619723,-15.68037 -14.430002,-23.52023 4.745558,-5.07739 9.490723,-10.15437 14.235839,-15.23128 15.470915,4.10466 30.940972,8.20941 46.411201,12.31455 z"
         inkscape:path-effect="#path-effect4555"
         inkscape:connector-curvature="0"
         id="path4553"
         d="m 66.702345,140.57612 c -1.365857,-1.69413 -19.567852,-9.18719 -31.131462,-12.24163 -11.56361,-3.05443 -16.749193,-1.59697 -20.804476,1.32137 -4.055282,2.91833 -6.8982642,7.02774 -6.2461727,13.92864 0.6520916,6.9009 4.9049557,16.43876 8.4957147,23.74582 3.590759,7.30705 6.518828,12.38205 7.94089,17.85108 1.422062,5.46903 1.337856,11.33139 0.09479,17.3825 -1.243063,6.05112 -3.644794,12.28973 -5.690939,19.91703 -2.046146,7.6273 -3.735935,16.6405 -3.485027,25.60499 0.250908,8.96449 2.4426,17.87643 7.675201,27.91838 5.232602,10.04195 13.505568,21.21234 14.237621,19.12036 0.732054,-2.09197 -6.076886,-17.44633 -9.202936,-28.94937 -3.12605,-11.50303 -2.569229,-19.15424 0.547775,-31.20265 3.117004,-12.04842 8.793886,-28.49318 10.585206,-39.58615 1.791321,-11.09297 -0.302874,-16.83373 -3.75501,-23.6242 -3.452135,-6.79048 -8.26207,-14.63045 -8.294281,-21.08916 -0.03221,-6.45872 4.712958,-11.5357 14.820931,-12.02167 10.107973,-0.48597 25.578028,3.61878 24.212172,1.92466 z"
         style="fill:#db3397;fill-opacity:1;stroke:none;stroke-width:0.26458332;stroke-linecap:butt;stroke-linejoin:miter;stroke-miterlimit:4;stroke-dasharray:none;stroke-opacity:1" />
      <path
         sodipodi:nodetypes="cccccccccccccccccc"
         inkscape:original-d="m 44.994564,151.25705 c 7.34291,3.66274 14.68552,7.32575 22.027927,10.98907 3.295417,-2.97044 6.590571,-5.94056 9.885479,-8.91039 5.894761,-5.92339 11.789258,-11.84649 17.68352,-17.7693 4.902636,-2.32275 9.80559,-4.6455 14.70801,-6.96779 3.44516,0.30937 6.8905,0.61906 10.33537,0.92904 2.78266,3.25112 5.56544,6.50297 8.34779,9.7549 0.33396,3.49107 0.68549,7.16889 1.02788,10.75399 -0.79343,3.71763 -1.58694,7.43477 -2.38095,11.15328 -2.26202,2.48847 -4.52329,4.97612 -6.78598,7.46534 0.32297,-3.98477 0.64555,-7.96771 0.96796,-11.95112 -0.93532,-3.32546 -1.87089,-6.65061 -2.80671,-9.97549 -5.13804,-0.75409 -10.27617,-1.50787 -15.41486,-2.26141 -6.243733,4.00071 -12.487351,8.00148 -18.731394,12.00264 -4.505129,2.94181 -9.010061,5.88362 -13.515473,8.82586 -2.648634,-0.74797 -5.296994,-1.4955 -7.946132,-2.2429 -1.611272,-0.64625 -3.222572,-1.29214 -4.83423,-1.93777 -4.18916,-3.28629 -8.378545,-6.57225 -12.568207,-9.85795 z"
         inkscape:path-effect="#path-effect4559"
         inkscape:connector-curvature="0"
         id="path4557"
         d="m 50.760648,154.73159 c 1.576659,0.18853 8.919271,3.85154 14.238285,4.19784 5.319014,0.34629 8.614165,-2.62383 13.20899,-7.07045 4.594825,-4.44662 10.489327,-10.36972 15.887798,-14.49244 5.398471,-4.12272 10.301429,-6.44546 14.475169,-7.45184 4.17374,-1.00638 7.61908,-0.69668 10.73272,1.08383 3.11363,1.78052 5.89641,5.03237 7.45457,8.40376 1.55816,3.37139 1.90969,7.04921 1.68422,10.70054 -0.22547,3.65133 -1.01899,7.36847 -2.54691,10.47198 -1.52792,3.10351 -3.78919,5.59116 -4.75916,4.84338 -0.96998,-0.74779 -0.64739,-4.73073 -0.95389,-8.38511 -0.3065,-3.65438 -1.24207,-6.97953 -4.27887,-9.0189 -3.0368,-2.03937 -8.17493,-2.79315 -13.86609,-1.16968 -5.691155,1.62347 -11.934775,5.62424 -17.309361,9.09572 -5.374585,3.47149 -9.879519,6.41329 -13.456616,7.51055 -3.577098,1.09726 -6.225457,0.34973 -8.355681,-0.3471 -2.130225,-0.69682 -3.741529,-1.3427 -6.64199,-3.30868 -2.900462,-1.96597 -7.089842,-5.25194 -5.513184,-5.0634 z"
         style="fill:#db3397;fill-opacity:1;stroke:none;stroke-width:0.26458332;stroke-linecap:butt;stroke-linejoin:miter;stroke-miterlimit:4;stroke-dasharray:none;stroke-opacity:1" />
      <path
         sodipodi:nodetypes="cccccccccccccccccccc"
         inkscape:original-d="m 41.149313,283.70309 c 1.318256,-8.42952 2.636259,-16.85876 3.954013,-25.28774 4.766402,-11.56208 9.532541,-23.12387 14.298433,-34.68542 3.258889,-3.00082 6.517524,-6.00138 9.775903,-9.00165 3.721163,0.81163 7.442069,1.62352 11.162726,2.43569 3.608744,5.945 7.217174,11.89018 10.825488,17.83583 4.222175,11.79421 8.44394,23.58828 12.665534,35.38281 1.03022,9.87826 2.06022,19.75704 3.08991,29.63563 0.53287,-5.30804 1.06552,-10.61603 1.59791,-15.92364 -0.50225,-7.18176 -1.00476,-14.36325 -1.50752,-21.54445 -2.75053,-11.67195 -5.50133,-23.34366 -8.252365,-35.01506 -2.91624,-5.63095 -5.832728,-11.26162 -8.749473,-16.89201 -3.132518,-3.80607 -6.265207,-7.61176 -9.398297,-11.41737 -4.425659,-0.2578 -8.851243,-0.51533 -13.277408,-0.7726 -3.477697,3.72791 -6.955343,7.45576 -10.433594,11.18428 -2.664194,4.8249 -5.328332,9.64954 -7.993012,14.47497 -3.210543,9.3028 -6.421004,18.60491 -9.632047,27.90826 -0.662056,8.38935 -1.3243,16.77817 -1.986854,25.168 0.52814,5.92888 1.056001,11.85772 1.583624,17.78702 0.759263,-3.7578 1.518271,-7.5153 2.277029,-11.27255 z"
         inkscape:path-effect="#path-effect4563"
         inkscape:connector-curvature="0"
         id="path4561"
         d="m 41.428865,281.36692 c 1.0385,-6.09338 2.356503,-14.52262 5.398621,-24.51816 3.042118,-9.99554 7.808256,-21.55733 11.820718,-28.83848 4.012462,-7.28115 7.271101,-10.28171 10.760828,-11.37588 3.489726,-1.09418 7.210631,-0.28229 10.875213,3.09623 3.664583,3.37852 7.273018,9.3237 11.188256,18.1936 3.915238,8.86989 8.13701,20.66396 10.762929,31.50031 2.62592,10.83636 3.65592,20.71514 4.43723,23.00039 0.78131,2.28525 1.31396,-3.02274 1.329,-9.26741 0.0151,-6.24466 -0.48746,-13.42615 -2.11412,-22.8527 -1.62666,-9.42655 -4.37746,-21.09826 -7.211102,-29.74939 -2.833645,-8.65113 -5.750136,-14.2818 -8.774752,-18.99999 -3.024617,-4.7182 -6.157303,-8.52389 -9.936544,-10.55557 -3.779242,-2.03169 -8.204826,-2.28921 -12.156748,-0.55403 -3.951922,1.73518 -7.429564,5.46304 -10.500825,9.73972 -3.071262,4.27669 -5.735404,9.10133 -8.673047,16.16544 -2.937643,7.06411 -6.148103,16.36622 -8.084698,25.21259 -1.936595,8.84636 -2.598839,17.23518 -2.666069,24.39456 -0.06723,7.15937 0.46063,13.08821 1.104117,14.17393 0.643487,1.08572 1.402493,-2.67178 2.440993,-8.76516 z"
         style="fill:#db3397;fill-opacity:1;stroke:none;stroke-width:0.26458332;stroke-linecap:butt;stroke-linejoin:miter;stroke-miterlimit:4;stroke-dasharray:none;stroke-opacity:1" />
      <path
         sodipodi:nodetypes="cccccccccccccccccccccccc"
         inkscape:original-d="m 118.32807,196.48521 c 0.30015,0.53391 0.59991,1.06786 0.89947,1.60218 1.2734,2.97995 2.54651,5.96007 3.81943,8.94066 0.67905,3.70363 1.35775,7.40701 2.03628,11.11128 0.43853,4.57978 0.87673,9.15899 1.31474,13.73926 -0.22775,4.64726 -0.4557,9.29405 -0.68397,13.94186 -0.62318,5.43812 -1.24654,10.8756 -1.87031,16.3143 -1.68323,6.2841 -3.36644,12.56751 -5.05016,18.85199 -3.21062,5.96112 -6.42079,11.92119 -9.63232,17.88358 1.7137,-5.59174 3.4266,-11.18146 5.13953,-16.77181 0.53669,-3.39455 1.07307,-6.7888 1.60919,-10.18283 0.3441,-2.82041 0.6879,-5.64046 1.03143,-8.46029 0.0206,-3.94641 0.041,-7.89251 0.0612,-11.83836 -0.29532,-3.61327 -0.59091,-7.22625 -0.88676,-10.83896 -0.38004,-2.93742 -0.76038,-5.87454 -1.14097,-8.81141 -0.60101,-3.60489 -1.20232,-7.20949 -1.80387,-10.81383 -1.49262,-4.6021 -2.98552,-9.20389 -4.47871,-13.80541 -1.17019,-2.85773 -2.34067,-5.71518 -3.51144,-8.57235 -2.33704,-5.45236 -4.67431,-10.90442 -7.011892,-16.35629 2.994942,0.87209 5.989592,1.74443 8.983982,2.61702 2.13852,1.6026 4.68382,3.51062 6.41469,4.80858 1.02477,1.33187 2.53112,3.29053 3.79628,4.93619 0.32166,0.56795 0.96418,1.70464 0.96418,1.70464 0,0 2.6e-4,-2.6e-4 0,0 z"
         inkscape:path-effect="#path-effect4567"
         inkscape:connector-curvature="0"
         id="path4565"
         d="m 118.47799,196.75225 c 0.14992,0.26705 0.44968,0.80099 1.23616,2.55811 0.78648,1.75711 2.05958,4.73724 3.03557,8.07931 0.976,3.34207 1.65469,7.04545 2.21323,11.18746 0.55855,4.14201 0.99675,8.72122 1.1019,13.33496 0.10515,4.61375 -0.12281,9.26054 -0.54854,14.30349 -0.42573,5.04296 -1.04909,10.48044 -2.20255,16.34183 -1.15345,5.86139 -2.83668,12.1448 -5.2838,18.2676 -2.44712,6.1228 -5.65729,12.08287 -6.40624,12.2682 -0.74895,0.18532 0.96396,-5.4044 2.08872,-9.89684 1.12477,-4.49245 1.66116,-7.8867 2.10126,-10.99391 0.4401,-3.10722 0.78391,-5.92727 0.96599,-9.31038 0.18209,-3.3831 0.20249,-7.3292 0.0649,-11.10875 -0.13761,-3.77955 -0.43319,-7.39253 -0.77115,-10.66758 -0.33796,-3.27506 -0.71829,-6.21218 -1.2091,-9.48305 -0.49081,-3.27088 -1.0921,-6.87548 -2.13921,-10.97867 -1.0471,-4.10319 -2.54,-8.70498 -3.87169,-12.43459 -1.3317,-3.72961 -2.50218,-6.58706 -4.25606,-10.74183 -1.75389,-4.15477 -4.09117,-9.60682 -3.76238,-11.89663 0.3288,-2.2898 3.32345,-1.41747 5.88984,-0.17987 2.56638,1.2376 5.11169,3.14561 6.48947,4.46049 1.37779,1.31488 2.88414,3.27354 3.67754,4.38032 0.7934,1.10678 1.11484,1.67508 1.43623,2.24329 0,0 0,0 0.14992,0.26704 z"
         style="fill:#db3397;fill-opacity:1;stroke:none;stroke-width:0.26458332;stroke-linecap:butt;stroke-linejoin:miter;stroke-miterlimit:4;stroke-dasharray:none;stroke-opacity:1" />
    </g>
  </g>
</svg>
